<?xml version="1.0" encoding="UTF-8"?>
<svg width="1282px" height="400px" viewBox="0 0 1282 400" version="1.1" xmlns="http://www.w3.org/2000/svg" xmlns:xlink="http://www.w3.org/1999/xlink">
    <!-- Generator: Sketch 51.2 (57519) - http://www.bohemiancoding.com/sketch -->
    <title>hermit</title>
    <desc>Created with Sketch.</desc>
    <defs></defs>
    <g id="Page-1" stroke="none" stroke-width="1" fill="none" fill-rule="evenodd">
        <g id="98oc_n4ku_170727">
            <path d="M166.499555,382 C167.441023,382 168.392788,381.854112 169.334256,381.552124 C174.100438,380.001337 176.69536,374.915687 175.133111,370.186004 C168.764962,350.898174 163.945823,324.900963 162.242354,300.6369 C160.580075,276.930128 185.462781,256.151324 185.717271,255.945622 C189.566993,252.774021 190.11275,247.100443 186.919114,243.273806 C183.731362,239.44425 178.028125,238.894253 174.160751,242.048348 C172.838283,243.129377 141.806614,268.852319 144.123508,301.891535 C145.924065,327.544451 151.062421,355.172687 157.874825,375.79685 C159.126683,379.588474 162.683667,382 166.499555,382" id="Fill-1" fill="#D0612E"></path>
            <path d="M130.673631,386 C130.933657,386 131.197992,385.988308 131.460892,385.962001 C136.342485,385.530859 139.94837,381.146362 139.518824,376.186034 C137.760416,355.934043 138.982969,329.483834 142.78136,305.424638 C146.460512,282.12396 174.781796,267.25613 175.064808,267.112904 C179.456518,264.903117 181.249404,259.488263 179.077253,255.023384 C176.900793,250.558504 171.579598,248.724323 167.192198,250.941417 C165.695253,251.698474 130.4409,269.809369 125.266239,302.561561 C121.252357,328.00772 119.970903,356.11673 121.84855,377.770299 C122.253673,382.466095 126.125331,386 130.673631,386" id="Fill-2" fill="#EB904E"></path>
            <path d="M92.4132928,392 C92.676136,392 92.9433358,391.989905 93.2105355,391.963947 C98.1421131,391.532747 101.788518,387.2121 101.354318,382.314598 C99.6175203,362.731799 102.988012,342.714916 111.670551,321.113123 C119.083892,302.666729 148.054732,290.548439 158.588791,287.439189 C163.335942,286.034546 166.036983,281.076473 164.625471,276.363565 C163.212508,271.654983 158.231556,268.972605 153.478596,270.370037 C151.593676,270.931029 107.135417,284.364549 95.0184902,314.513897 C85.4094652,338.427438 81.5321648,361.767008 83.4955019,383.879318 C83.9035623,388.510025 87.8186192,392 92.4132928,392" id="Fill-3" fill="#D0612E"></path>
            <path d="M57.2466059,389.775899 C61.4259021,388.846306 64.5078978,385.087514 64.4239355,380.647404 C64.038867,360.394097 68.9246047,340.049852 79.3547499,318.448345 C88.2286971,300.085982 118.792424,289.619391 129.817544,287.130852 C134.774215,286.015051 137.889506,281.107257 136.773387,276.164821 C135.664505,271.228159 130.751263,268.117484 125.794591,269.223181 C125.790248,269.223181 125.785906,269.223181 125.78301,269.226068 C123.634733,269.7053 77.3092544,280.398514 62.7765371,310.484729 C51.2259294,334.397229 45.5903215,358.120634 46.0231616,380.996724 C46.1216002,386.066185 50.3153727,390.097793 55.4008827,389.998194 C56.0363906,389.988089 56.6545268,389.911586 57.2466059,389.775899" id="Fill-4" fill="#EB904E"></path>
            <path d="M338,248.478213 C338,206.432765 285.618476,183 220.99855,183 C156.382974,183 104,206.432765 104,248.478213 C104,290.525112 148.05535,317 212.670926,317 C277.290852,317 338,290.525112 338,248.478213" id="Fill-5" fill="#E67740"></path>
            <path d="M165.412351,189.752462 C95.9474888,199.64173 103.217825,237.273408 103.217825,237.273408 C103.217825,237.273408 175.34645,163.923726 325.297495,280.553794 C325.297495,280.553794 359.88009,287.702963 348.816787,244.768387 C304.99354,213.645544 234.881557,179.867589 165.412351,189.752462" id="Fill-6" fill="#DE9530"></path>
            <path d="M271.391,23.0038051 C271.282,23.0008051 271.153,22.9988051 271,23.0008051 L271.018,23.1578051 L271.391,23.0038051" id="Fill-7" fill="#FFFFFE"></path>
            <path d="M271.391,23.0038051 C271.282,23.0008051 271.153,22.9988051 271,23.0008051 L271.018,23.1578051 L271.391,23.0038051 Z" id="Stroke-8" stroke="#191C1A" stroke-linecap="round" stroke-linejoin="round"></path>
            <path d="M271.481,23.096 C271.851,23.047 271.796,23.01 271.373,23 L271,23.154 C271,23.154 271.173,23.129 271.481,23.096" id="Fill-9" fill="#FFFFFE"></path>
            <path d="M271.481,23.096 C271.851,23.047 271.796,23.01 271.373,23 L271,23.154 C271,23.154 271.173,23.129 271.481,23.096 Z" id="Stroke-10" stroke="#191C1A" stroke-linecap="round" stroke-linejoin="round"></path>
            <path d="M271.481,23 C271.173,23.033 271,23.058 271,23.058 C271.212,23.039 271.363,23.018 271.481,23" id="Fill-11" fill="#FFFFFE"></path>
            <path d="M271.481,23 C271.173,23.033 271,23.058 271,23.058 C271.212,23.039 271.363,23.018 271.481,23 Z" id="Stroke-12" stroke="#191C1A" stroke-linecap="round" stroke-linejoin="round"></path>
            <g id="Group-17" transform="translate(79.000000, 0.000000)">
                <path d="M247.900267,0.0173123151 L192.132094,23.0671228 C192.744279,23.0816845 192.823877,23.1355631 192.288396,23.2069157 C197.243766,22.7001664 228.637424,20.6323964 261.058626,44.9097633 C261.05139,44.8981139 261.048496,44.8922892 261.036918,44.882096 L247.900267,0.0173123151" id="Fill-13" fill="#FBD36F"></path>
                <path d="M78.84458,89.758529 C78.84458,89.758529 -53.3265981,151.622712 24.7653428,236.593496 C24.7653428,236.593496 17.497274,199.195983 86.9404735,189.368251 C156.388015,179.544887 226.478133,213.112657 270.287714,244.041836 C270.287714,244.041836 343.336003,203.424718 280.854056,138.769046 C185.244651,37.2182415 78.84458,89.758529 78.84458,89.758529" id="Fill-15" fill="#EEB334"></path>
                <path d="M192.288396,23.2069157 C192.117621,23.2331268 191.899087,23.2637065 191.592271,23.2913739 L191.566221,23.0627543 C179.108328,23.1166328 63.6267895,31.3848003 78.84458,89.758529 C78.84458,89.758529 185.244651,37.2182415 280.854056,138.769046 C280.854056,138.769046 330.244216,115.599829 261.058626,44.9097633 C228.637424,20.6323964 197.243766,22.7001664 192.288396,23.2069157" id="Fill-16" fill="#F9C739"></path>
            </g>
            <path d="M332.498591,144.999995 C332.498591,144.999995 371.042853,87.4488211 300.44317,38.0491181 C300.44317,38.0491181 273.459174,24.2357227 281.494549,38.3568314 C289.511273,52.4794054 313.948797,66.3895107 302.235026,76.7403991 C290.504039,87.098614 306.445671,84.7043117 303.800209,100.129539 C301.151879,115.5533 297.876613,113.375862 305.382609,129.236284 C312.888604,145.084983 332.498591,144.999995 332.498591,144.999995" id="Fill-18" fill="#E98543"></path>
            <path d="M306.886857,144.651495 C305.758975,145.227956 325.802682,123.759899 312.317134,114.792563 C298.825817,105.828153 287.587379,111.588376 288.647473,96.7291386 C289.709009,81.8713647 293.649385,81.2758832 282.914312,73.9018625 C272.180681,66.5132108 263.994161,62.8379052 265.358581,52.836158 C266.727328,42.8256322 263.46195,29.3797492 254.547065,39.7238616 C245.630738,50.0694371 229.078851,127.281579 273.399429,152.514191 C317.728661,177.748265 306.886857,144.651495 306.886857,144.651495" id="Fill-19" fill="#EB904E"></path>
            <path d="M301.880066,226 C301.880066,226 342.789653,208.606173 342.99883,165.621078 C343.206545,122.633084 315.710657,124.939792 294.871883,135.384498 C274.041887,145.823403 284.276963,219.751155 286.256105,220.866088 C288.233785,221.981021 301.880066,226 301.880066,226" id="Fill-20" fill="#D0612E"></path>
            <path d="M268.994055,207.321717 C247.913484,209.245456 220.331441,220.896592 216.273672,230.692643 C203.832081,260.73873 245.357512,259.773284 270.329635,253.32411 C290.800739,248.0349 309.965425,233.411623 308.962283,222.887555 C307.962056,212.360626 290.067337,205.389396 268.994055,207.321717" id="Fill-21" fill="#EB904E"></path>
            <path d="M164.002165,268.844316 C147.742886,268.844316 134.259651,260.27163 131.535576,249 C131.206435,250.78702 131,252.616763 131,254.492176 C131,271.893888 145.773814,286 164.002165,286 C182.226186,286 197,271.893888 197,254.492176 C197,252.616763 196.797896,250.78702 196.468755,249 C193.740349,260.27163 180.261445,268.844316 164.002165,268.844316" id="Fill-22" fill="#691D1E"></path>
            <path d="M155,217.365587 C155,222.68617 150.745565,227 145.502856,227 C140.254435,227 136,222.68617 136,217.365587 L136,162.635862 C136,157.31383 140.254435,153 145.502856,153 C150.745565,153 155,157.31383 155,162.635862 L155,217.365587" id="Fill-23" fill="#D0612E"></path>
            <path d="M170,147.502143 C170,161.584456 158.583028,173 144.503571,173 C130.416972,173 119,161.584456 119,147.502143 C119,133.418401 130.416972,122 144.503571,122 C158.583028,122 170,133.418401 170,147.502143" id="Fill-24" fill="#FFFFFE"></path>
            <path d="M157,147.505597 C157,154.952425 150.953198,161 143.501399,161 C136.044003,161 130,154.952425 130,147.505597 C130,140.047575 136.044003,134 143.501399,134 C150.953198,134 157,140.047575 157,147.505597" id="Fill-25" fill="#3C2B28"></path>
            <path d="M145,145.497756 C145,147.980721 142.980203,150 140.497754,150 C138.012311,150 136,147.980721 136,145.497756 C136,143.017783 138.012311,141 140.497754,141 C142.980203,141 145,143.017783 145,145.497756" id="Fill-26" fill="#FFFFFE"></path>
            <path d="M145,145.497756 C145,147.980721 142.980203,150 140.497754,150 C138.012311,150 136,147.980721 136,145.497756 C136,143.017783 138.012311,141 140.497754,141 C142.980203,141 145,143.017783 145,145.497756 Z" id="Stroke-27" stroke="#191C1A" stroke-linecap="round" stroke-linejoin="round"></path>
            <path d="M139,153.502281 C139,154.329278 138.329398,155 137.497715,155 C136.668317,155 136,154.329278 136,153.502281 C136,152.676426 136.668317,152 137.497715,152 C138.329398,152 139,152.676426 139,153.502281" id="Fill-28" fill="#FFFFFE"></path>
            <path d="M139,153.502281 C139,154.329278 138.329398,155 137.497715,155 C136.668317,155 136,154.329278 136,153.502281 C136,152.676426 136.668317,152 137.497715,152 C138.329398,152 139,152.676426 139,153.502281 Z" id="Stroke-29" stroke="#191C1A" stroke-linecap="round" stroke-linejoin="round"></path>
            <path d="M218,217.365587 C218,222.68617 213.745565,227 208.498572,227 C203.255863,227 199,222.68617 199,217.365587 L199,162.635862 C199,157.31383 203.255863,153 208.498572,153 C213.745565,153 218,157.31383 218,162.635862 L218,217.365587" id="Fill-30" fill="#D0612E"></path>
            <path d="M234,147.502143 C234,161.584456 222.584136,173 208.498572,173 C194.415864,173 183,161.584456 183,147.502143 C183,133.418401 194.415864,122 208.498572,122 C222.584136,122 234,133.418401 234,147.502143" id="Fill-31" fill="#FFFFFE"></path>
            <path d="M222,147.505597 C222,154.952425 215.953825,161 208.498601,161 C201.047575,161 195,154.952425 195,147.505597 C195,140.047575 201.047575,134 208.498601,134 C215.953825,134 222,140.047575 222,147.505597" id="Fill-32" fill="#3C2B28"></path>
            <path d="M208,145.497756 C208,147.980721 205.979714,150 203.498503,150 C201.0143,150 199,147.980721 199,145.497756 C199,143.017783 201.0143,141 203.498503,141 C205.979714,141 208,143.017783 208,145.497756" id="Fill-33" fill="#FFFFFE"></path>
            <path d="M208,145.497756 C208,147.980721 205.979714,150 203.498503,150 C201.0143,150 199,147.980721 199,145.497756 C199,143.017783 201.0143,141 203.498503,141 C205.979714,141 208,143.017783 208,145.497756 Z" id="Stroke-34" stroke="#191C1A" stroke-linecap="round" stroke-linejoin="round"></path>
            <path d="M202,153.502281 C202,154.329278 201.330796,155 200.502855,155 C199.66692,155 199,154.329278 199,153.502281 C199,152.676426 199.66692,152 200.502855,152 C201.330796,152 202,152.676426 202,153.502281" id="Fill-35" fill="#FFFFFE"></path>
            <path d="M202,153.502281 C202,154.329278 201.330796,155 200.502855,155 C199.66692,155 199,154.329278 199,153.502281 C199,152.676426 199.66692,152 200.502855,152 C201.330796,152 202,152.676426 202,153.502281 Z" id="Stroke-36" stroke="#191C1A" stroke-linecap="round" stroke-linejoin="round"></path>
            <path d="M337.22478,370.959127 C333.101619,370.561218 329.682975,367.281748 329.223883,362.954306 C327.140647,343.203151 319.978531,324.002948 307.334747,304.261997 C296.587963,287.485686 265.952988,281.027317 255.056061,279.956023 C250.159085,279.475034 246.567199,275.07763 247.042171,270.135104 C247.509925,265.194036 251.851083,261.569129 256.750946,262.041372 C256.750946,262.041372 256.759608,262.04283 256.763939,262.04283 C258.886155,262.246886 304.692805,266.998473 322.299975,294.489176 C336.297935,316.350852 344.589012,338.740157 346.949436,361.050756 C347.469162,365.988908 343.923474,370.424209 339.026498,370.953297 C338.421594,371.013056 337.815247,371.015971 337.22478,370.959127" id="Fill-37" fill="#D0612E"></path>
            <path d="M303.58447,383 C303.324529,383 303.058779,382.988463 302.787221,382.96683 C297.858514,382.535624 294.212083,378.212027 294.647738,373.313008 C296.384548,353.734237 293.014033,333.712723 284.331433,312.112043 C276.916589,293.663926 247.944094,281.549778 237.411414,278.439038 C232.665681,277.034373 229.964622,272.077668 231.373239,267.364687 C232.78476,262.653149 237.770103,259.973615 242.521645,261.369626 C244.406577,261.927742 288.865147,275.364351 300.982158,305.511274 C310.592703,329.429506 314.468578,352.765105 312.503775,374.882079 C312.094259,379.509972 308.18208,383 303.58447,383" id="Fill-38" fill="#EB904E"></path>
            <path d="M269.329016,398 C269.070418,398 268.804637,397.988308 268.54173,397.962001 C263.661418,397.530861 260.053981,393.146385 260.484977,388.186081 C262.239131,367.932723 261.020848,341.4841 257.2209,317.426479 C253.543067,294.124449 225.220879,279.255228 224.933549,279.112002 C220.546009,276.902226 218.748755,271.488859 220.923849,267.024 C223.096069,262.559142 228.417433,260.723508 232.804973,262.942053 C234.303403,263.699106 269.56319,281.809916 274.733706,314.563416 C278.750589,340.007993 280.027774,368.115409 278.151505,389.770338 C277.750679,394.466112 273.874587,398 269.329016,398" id="Fill-39" fill="#D0612E"></path>
            <g id="Group-43" transform="translate(0.000000, 42.000000)">
                <path d="M232.6518,357.92541 C231.719229,357.92541 230.775,357.781413 229.845343,357.47742 C225.127114,355.93418 222.552343,350.860834 224.098371,346.148208 C230.412171,326.920984 235.185771,300.995723 236.868771,276.811514 C238.519714,253.168385 213.867771,232.456103 213.617143,232.249562 C209.802343,229.087448 209.2632,223.433751 212.4252,219.615651 C215.584286,215.796096 221.238,215.249199 225.067371,218.393859 C226.374429,219.471654 257.1114,245.120558 254.8164,278.055124 C253.032857,303.634211 247.944514,331.182711 241.195029,351.743725 C239.955,355.525462 236.433086,357.92541 232.6518,357.92541" id="Fill-40" fill="#EB904E"></path>
                <path d="M23.9947714,122.31883 C23.9947714,122.31883 -29.4867429,78.2645023 25.7928857,11.3073937 C25.7928857,11.3073937 48.3188571,-9.44852451 44.3729143,6.27331992 C40.4371714,22.0009824 20.4247714,42.132914 34.7178857,48.7102274 C49.0139143,55.2948134 32.793,57.4940389 39.6313714,71.4602847 C46.4668286,85.4250759 49.0649143,82.4287766 46.1112857,99.6676794 C43.1532857,116.892037 23.9947714,122.31883 23.9947714,122.31883" id="Fill-42" fill="#E98543"></path>
            </g>
            <path d="M50.0901776,155.229879 C51.3426596,155.465492 25.9977201,140.65657 36.5979941,128.398917 C47.2040868,116.136927 59.6779924,118.485829 54.556054,104.671396 C49.4355704,90.8627451 45.451194,91.397572 53.8214392,81.4136556 C62.1873203,71.41673 69.1087013,65.6521639 65.0283159,56.5384253 C60.9377477,47.4203502 60.3995151,33.7461287 71.890055,41.0877113 C83.3820496,48.4321848 120.703393,117.124189 84.7072656,153.38834 C48.7009555,189.658273 50.0901776,155.229879 50.0901776,155.229879" id="Fill-44" fill="#EB904E"></path>
            <path d="M75.4919307,235 C75.4919307,235 32.0196171,229.539124 19.9937981,188.398884 C7.96222096,147.258643 34.5992517,141.936603 57.1768128,146.231837 C79.7457367,150.524178 90.4169596,224.183821 88.8493133,225.793449 C87.2845461,227.407415 75.4919307,235 75.4919307,235" id="Fill-45" fill="#D0612E"></path>
            <path d="M93.2520717,218.074829 C107.389347,215.377656 127.6584,217.940917 132.188496,223.703523 C146.094466,241.3858 118.774232,248.57341 101.218291,248.986792 C86.8264342,249.323029 71.4860795,243.192164 70.1215225,235.989998 C68.7526014,228.783466 79.1060679,220.764725 93.2520717,218.074829" id="Fill-46" fill="#EB904E"></path>
        </g>
        <text id="Hermit" font-family="Herculanum" font-size="300" font-weight="normal" letter-spacing="-42.30769" fill="#EEB334">
            <tspan x="386" y="290">Hermi</tspan>
            <tspan x="1141.06155" y="290" letter-spacing="-36.26374">t</tspan>
        </text>
    </g>
</svg>