<?xml version="1.0" encoding="UTF-8"?>
<svg width="639px" height="640px" viewBox="0 0 639 640" version="1.1" xmlns="http://www.w3.org/2000/svg" xmlns:xlink="http://www.w3.org/1999/xlink">
    <!-- Generator: Sketch 51.2 (57519) - http://www.bohemiancoding.com/sketch -->
    <title>logo</title>
    <desc>Created with Sketch.</desc>
    <defs></defs>
    <g id="Page-1" stroke="none" stroke-width="1" fill="none" fill-rule="evenodd">
        <g id="98oc_n4ku_170727">
            <path d="M276.999268,610 C278.54746,610 280.112585,609.76884 281.660777,609.290338 C289.498499,606.833104 293.765703,598.774856 291.196672,591.28064 C280.724605,560.718938 272.799798,519.526174 269.998538,481.079594 C267.265012,443.516047 308.183239,410.591887 308.601735,410.265951 C314.932389,405.240526 315.829856,396.250703 310.578099,390.187368 C305.336018,384.119411 295.957362,383.247936 289.59768,388.245622 C287.422954,389.95852 236.393098,430.716702 240.203101,483.067573 C243.164018,523.714798 251.613759,567.491934 262.816379,600.171064 C264.87499,606.17892 270.724253,610 276.999268,610" id="Fill-1" fill="#D0612E"></path>
            <path d="M216.232024,616 C216.668339,616 217.111886,615.981516 217.553022,615.939928 C225.744169,615.258343 231.794722,608.326969 231.073959,600.485275 C228.12341,568.469259 230.174813,526.654591 236.548384,488.619832 C242.721877,451.784201 290.244031,428.279912 290.718915,428.053487 C298.088055,424.560075 301.096458,415.999828 297.451662,408.941379 C293.799635,401.88293 284.870851,398.983305 277.508942,402.48827 C274.997119,403.685087 215.84151,432.316282 207.158605,484.093645 C200.423447,524.321028 198.273211,568.758066 201.423837,602.989811 C202.103621,610.413313 208.600131,616 216.232024,616" id="Fill-2" fill="#EB904E"></path>
            <path d="M152.612291,627 C153.048226,627 153.491386,626.983782 153.934547,626.942078 C162.113749,626.249331 168.161445,619.307964 167.441309,611.439845 C164.560765,579.978955 170.15085,547.820685 184.551159,513.116165 C196.846455,483.480975 244.895653,464.012247 262.366775,459.017057 C270.2401,456.760418 274.719874,448.79499 272.378831,441.223432 C270.035379,433.658824 261.774288,429.349431 253.89133,431.594486 C250.765121,432.495751 177.029472,454.077473 156.933106,502.51413 C140.996186,540.932606 134.565542,578.428964 137.821808,613.953658 C138.498591,621.393155 144.991856,627 152.612291,627" id="Fill-3" fill="#D0612E"></path>
            <path d="M95.7855395,623.638846 C102.766342,622.140741 107.914291,616.083183 107.774046,608.927635 C107.130855,576.288008 115.291647,543.501827 132.713428,508.689482 C147.535846,479.097243 198.587346,462.229598 217.002931,458.219141 C225.282206,456.420949 230.485769,448.511696 228.621481,440.546613 C226.769284,432.590834 218.562549,427.577764 210.283273,429.359672 C210.276019,429.359672 210.268765,429.359672 210.263929,429.364324 C206.675599,430.13664 129.296777,447.369507 105.022348,495.855555 C85.729025,534.392229 76.3157018,572.624163 77.0386876,609.490588 C77.2031124,617.660381 84.208095,624.1576 92.7025734,623.997089 C93.7640809,623.980805 94.7965723,623.857514 95.7855395,623.638846" id="Fill-4" fill="#EB904E"></path>
            <path d="M560,397.569683 C560,330.422475 472.921313,293 365.497589,293 C258.081097,293 171,330.422475 171,397.569683 C171,464.719209 244.237312,507 351.653804,507 C459.077528,507 560,464.719209 560,397.569683" id="Fill-5" fill="#E67740"></path>
            <path d="M273.685035,302.77002 C158.283731,318.401445 170.361871,377.883775 170.361871,377.883775 C170.361871,377.883775 290.188458,261.943954 539.300678,446.294707 C539.300678,446.294707 596.752407,457.595007 578.373049,389.730676 C505.569913,340.536505 389.093554,287.145544 273.685035,302.77002" id="Fill-6" fill="#DE9530"></path>
            <path d="M448,37.0152202 C447.721228,37.0032202 447.391304,36.9952202 447,37.0032202 L447.046036,37.6312202 L448,37.0152202" id="Fill-7" fill="#FFFFFE"></path>
            <path d="M448,37.0152202 C447.721228,37.0032202 447.391304,36.9952202 447,37.0032202 L447.046036,37.6312202 L448,37.0152202 Z" id="Stroke-8" stroke="#191C1A" stroke-linecap="round" stroke-linejoin="round"></path>
            <path d="M448.322322,37.384 C449.339492,37.188 449.188291,37.04 448.025418,37 L447,37.616 C447,37.616 447.475596,37.516 448.322322,37.384" id="Fill-9" fill="#FFFFFE"></path>
            <path d="M448.322322,37.384 C449.339492,37.188 449.188291,37.04 448.025418,37 L447,37.616 C447,37.616 447.475596,37.516 448.322322,37.384 Z" id="Stroke-10" stroke="#191C1A" stroke-linecap="round" stroke-linejoin="round"></path>
            <path d="M448,37 C447.359667,37.132 447,37.232 447,37.232 C447.440748,37.156 447.754678,37.072 448,37" id="Fill-11" fill="#FFFFFE"></path>
            <path d="M448,37 C447.359667,37.132 447,37.232 447,37.232 C447.440748,37.156 447.754678,37.072 448,37 Z" id="Stroke-12" stroke="#191C1A" stroke-linecap="round" stroke-linejoin="round"></path>
            <g id="Group-17" transform="translate(129.000000, 0.000000)">
                <path d="M412.557854,0.284928136 L319.887185,36.9978552 C320.90446,37.0210486 321.03673,37.1068644 320.146915,37.2205124 C328.381315,36.41338 380.548548,33.1199088 434.423264,71.7880444 C434.41124,71.7694897 434.40643,71.7602123 434.387191,71.7439769 L412.557854,0.284928136" id="Fill-13" fill="#FBD36F"></path>
                <path d="M131.63591,143.22158 C131.63591,143.22158 -87.9945853,241.756674 41.7717671,377.095149 C41.7717671,377.095149 29.6943264,317.529706 145.088957,301.87644 C260.490803,286.230132 376.960427,339.695695 449.759353,388.958603 C449.759353,388.958603 571.144606,324.265087 467.317576,221.283807 C308.442235,59.5372591 131.63591,143.22158 131.63591,143.22158" id="Fill-15" fill="#EEB334"></path>
                <path d="M320.146915,37.2205124 C319.863136,37.2622606 319.499995,37.3109669 318.990155,37.3550345 L318.946866,36.9908971 C298.245431,37.0767129 106.348318,50.2459593 131.63591,143.22158 C131.63591,143.22158 308.442235,59.5372591 467.317576,221.283807 C467.317576,221.283807 549.389822,184.380694 434.423264,71.7880444 C380.548548,33.1199088 328.381315,36.41338 320.146915,37.2205124" id="Fill-16" fill="#F9C739"></path>
            </g>
            <path d="M551.330963,229.999992 C551.330963,229.999992 616.183214,138.834858 497.396445,60.5822313 C497.396445,60.5822313 451.994801,38.7008351 465.514637,61.0696709 C479.003095,83.440828 520.120199,105.47542 500.411313,121.87196 C480.673462,138.280105 507.495891,134.487361 503.044797,158.922012 C498.588875,183.354343 493.078111,179.905127 505.707246,205.029157 C518.336382,230.134619 551.330963,229.999992 551.330963,229.999992" id="Fill-18" fill="#E98543"></path>
            <path d="M509.098583,230.325004 C507.213629,231.244596 540.711331,196.997934 518.17384,182.692898 C495.626707,168.392531 476.844661,177.581456 478.616325,153.877435 C480.390399,130.175748 486.975685,129.225814 469.034878,117.462495 C451.096481,105.675836 437.414898,99.8128487 439.695162,83.8576806 C441.982657,67.8885085 436.525451,46.4391236 421.626602,62.9404459 C406.725344,79.4441021 379.063285,202.615853 453.133292,242.867876 C527.217762,283.122233 509.098583,230.325004 509.098583,230.325004" id="Fill-19" fill="#EB904E"></path>
            <path d="M500.916174,364 C500.916174,364 568.65172,336.026423 568.998063,266.895755 C569.341984,197.760424 523.816005,201.470182 489.312463,218.267852 C454.823452,235.056195 471.770053,353.950311 475.046994,355.743399 C478.321512,357.536488 500.916174,364 500.916174,364" id="Fill-20" fill="#D0612E"></path>
            <path d="M444.884913,330.527616 C410.046494,333.682548 364.46354,352.790411 357.757542,368.855935 C337.196176,418.131516 405.822415,416.548186 447.092133,405.971541 C480.923326,397.297237 512.595492,373.315062 510.937667,356.05559 C509.284662,338.791427 479.711283,327.35861 444.884913,330.527616" id="Fill-21" fill="#EB904E"></path>
            <path d="M271.503576,430.107306 C244.65113,430.107306 222.383364,416.669042 217.884512,399 C217.34093,401.801274 217,404.66952 217,407.609357 C217,434.887717 241.399178,457 271.503576,457 C301.600822,457 326,434.887717 326,407.609357 C326,404.66952 325.666222,401.801274 325.12264,399 C320.616636,416.669042 298.356023,430.107306 271.503576,430.107306" id="Fill-22" fill="#691D1E"></path>
            <path d="M256,348.506822 C256,357.062895 248.610719,364 239.504961,364 C230.389281,364 223,357.062895 223,348.506822 L223,260.495507 C223,251.937105 230.389281,245 239.504961,245 C248.610719,245 256,251.937105 256,260.495507 L256,348.506822" id="Fill-23" fill="#D0612E"></path>
            <path d="M283,239.503487 C283,262.421762 263.74785,281 240.006022,281 C216.25215,281 197,262.421762 197,239.503487 C197,216.582888 216.25215,198 240.006022,198 C263.74785,198 283,216.582888 283,239.503487" id="Fill-24" fill="#FFFFFE"></path>
            <path d="M262,237.009121 C262,249.144693 251.698041,259 239.002384,259 C226.297191,259 216,249.144693 216,237.009121 C216,224.855307 226.297191,215 239.002384,215 C251.698041,215 262,224.855307 262,237.009121" id="Fill-25" fill="#3C2B28"></path>
            <path d="M238,231.496759 C238,235.083264 234.633672,238 230.496257,238 C226.353851,238 223,235.083264 223,231.496759 C223,227.914575 226.353851,225 230.496257,225 C234.633672,225 238,227.914575 238,231.496759" id="Fill-26" fill="#FFFFFE"></path>
            <path d="M238,231.496759 C238,235.083264 234.633672,238 230.496257,238 C226.353851,238 223,235.083264 223,231.496759 C223,227.914575 226.353851,225 230.496257,225 C234.633672,225 238,227.914575 238,231.496759 Z" id="Stroke-27" stroke="#191C1A" stroke-linecap="round" stroke-linejoin="round"></path>
            <path d="M229,245.004563 C229,246.658555 227.658797,248 225.99543,248 C224.336634,248 223,246.658555 223,245.004563 C223,243.352852 224.336634,242 225.99543,242 C227.658797,242 229,243.352852 229,245.004563" id="Fill-28" fill="#FFFFFE"></path>
            <path d="M229,245.004563 C229,246.658555 227.658797,248 225.99543,248 C224.336634,248 223,246.658555 223,245.004563 C223,243.352852 224.336634,242 225.99543,242 C227.658797,242 229,243.352852 229,245.004563 Z" id="Stroke-29" stroke="#191C1A" stroke-linecap="round" stroke-linejoin="round"></path>
            <path d="M363,348.506822 C363,357.062895 355.610719,364 346.49752,364 C337.391762,364 330,357.062895 330,348.506822 L330,260.495507 C330,251.937105 337.391762,245 346.49752,245 C355.610719,245 363,251.937105 363,260.495507 L363,348.506822" id="Fill-30" fill="#D0612E"></path>
            <path d="M388,239.503487 C388,262.421762 368.74972,281 344.997591,281 C321.25028,281 302,262.421762 302,239.503487 C302,216.582888 321.25028,198 344.997591,198 C368.74972,198 388,216.582888 388,239.503487" id="Fill-31" fill="#FFFFFE"></path>
            <path d="M368,237.009121 C368,249.144693 357.699109,259 344.997616,259 C332.303275,259 322,249.144693 322,237.009121 C322,224.855307 332.303275,215 344.997616,215 C357.699109,215 368,224.855307 368,237.009121" id="Fill-32" fill="#3C2B28"></path>
            <path d="M345,231.496759 C345,235.083264 341.632857,238 337.497506,238 C333.357167,238 330,235.083264 330,231.496759 C330,227.914575 333.357167,225 337.497506,225 C341.632857,225 345,227.914575 345,231.496759" id="Fill-33" fill="#FFFFFE"></path>
            <path d="M345,231.496759 C345,235.083264 341.632857,238 337.497506,238 C333.357167,238 330,235.083264 330,231.496759 C330,227.914575 333.357167,225 337.497506,225 C341.632857,225 345,227.914575 345,231.496759 Z" id="Stroke-34" stroke="#191C1A" stroke-linecap="round" stroke-linejoin="round"></path>
            <path d="M336,245.004563 C336,246.658555 334.661591,248 333.00571,248 C331.333841,248 330,246.658555 330,245.004563 C330,243.352852 331.333841,242 333.00571,242 C334.661591,242 336,243.352852 336,245.004563" id="Fill-35" fill="#FFFFFE"></path>
            <path d="M336,245.004563 C336,246.658555 334.661591,248 333.00571,248 C331.333841,248 330,246.658555 330,245.004563 C330,243.352852 331.333841,242 333.00571,242 C334.661591,242 336,243.352852 336,245.004563 Z" id="Stroke-36" stroke="#191C1A" stroke-linecap="round" stroke-linejoin="round"></path>
            <path d="M558.773135,593.934754 C551.928687,593.29956 546.253739,588.064442 545.491647,581.156415 C542.033475,549.627049 530.144362,518.977183 509.155679,487.464105 C491.316018,460.683572 440.46196,450.373882 422.373062,448.663744 C414.244081,447.895926 408.281551,440.876216 409.070004,432.986313 C409.846475,425.098736 417.052797,419.312187 425.186571,420.066044 C425.186571,420.066044 425.20095,420.06837 425.208139,420.06837 C428.731017,420.394111 504.770056,427.979214 533.997958,471.863456 C557.234572,506.76191 570.997761,542.502636 574.916063,578.11772 C575.778809,586.000643 569.892967,593.080848 561.763987,593.925447 C560.759847,594.020842 559.75331,594.025496 558.773135,593.934754" id="Fill-37" fill="#D0612E"></path>
            <path d="M502.383998,613 C501.952877,613 501.512122,612.981465 501.061733,612.946711 C492.887291,612.253954 486.839553,605.307847 487.562102,597.437291 C490.442666,565.982873 484.852542,533.817161 470.452133,499.11443 C458.154342,469.476471 410.1024,450.014397 392.633565,445.016815 C384.762594,442.760141 380.282787,434.796909 382.61903,427.225235 C384.96009,419.655879 393.228464,415.351053 401.109069,417.593825 C404.235299,418.490471 477.971463,440.077155 498.06797,488.509916 C514.007409,526.935928 520.43569,564.425907 517.176992,599.958093 C516.497796,607.393069 510.009303,613 502.383998,613" id="Fill-38" fill="#EB904E"></path>
            <path d="M448.772416,633 C448.338498,633 447.892527,632.981516 447.451377,632.939928 C439.262379,632.258346 433.209222,625.327005 433.932418,617.485348 C436.875829,585.467172 434.831593,543.655011 428.455408,505.622742 C422.284129,468.784974 374.760459,445.278485 374.278327,445.052061 C366.916184,441.558665 363.900454,433.00077 367.550187,425.942354 C371.195099,418.883938 380.124168,415.982016 387.486311,419.489275 C390.000625,420.686087 449.165353,449.317147 457.841304,501.096576 C464.581498,541.32146 466.724571,585.755978 463.576254,619.989872 C462.903681,627.413339 456.399731,633 448.772416,633" id="Fill-39" fill="#D0612E"></path>
            <g id="Group-43" transform="translate(0.000000, 68.000000)">
                <path d="M383.124153,571.347332 C381.585355,571.347332 380.027322,571.117474 378.493333,570.632217 C370.707978,568.168782 366.459454,560.070328 369.010492,552.547681 C379.428634,521.855747 387.305355,480.471904 390.082404,441.86726 C392.806557,404.126328 352.129399,371.063832 351.715847,370.734135 C345.421202,365.686532 344.531585,356.661678 349.749071,350.566941 C354.961749,344.469883 364.29071,343.596884 370.609399,348.616626 C372.76612,350.337083 423.483934,391.279783 419.697049,443.852403 C416.754098,484.683657 408.358033,528.658635 397.220984,561.479663 C395.174863,567.516355 389.363497,571.347332 383.124153,571.347332" id="Fill-40" fill="#EB904E"></path>
                <path d="M38.8277596,195.254472 C38.8277596,195.254472 -49.4198907,124.931657 41.7947541,18.0497083 C41.7947541,18.0497083 78.9639344,-15.0824421 72.4528962,10.0139429 C65.9586885,35.119615 32.9370492,67.2557113 56.5215301,77.7549113 C80.1108197,88.2657203 53.3453552,91.7762887 64.629071,114.070256 C75.9079781,136.361901 80.1949727,131.578983 75.3213115,159.097011 C70.4404372,186.59182 38.8277596,195.254472 38.8277596,195.254472" id="Fill-42" fill="#E98543"></path>
            </g>
            <path d="M83.5731722,251.209958 C85.6416651,251.589457 43.7841135,227.736918 61.2906267,207.993675 C78.8067495,188.243448 99.4075935,192.026793 90.9486347,169.776066 C82.4920783,147.534651 75.9118204,148.396089 89.7354071,132.315125 C103.551787,116.213206 114.982552,106.928294 108.243734,92.248914 C101.488099,77.5625489 100.599199,55.5376576 119.576,67.3626494 C138.555203,79.1922977 200.191967,189.833617 140.743818,248.243815 C81.2788508,306.663326 83.5731722,251.209958 83.5731722,251.209958" id="Fill-44" fill="#EB904E"></path>
            <path d="M125.486551,377 C125.486551,377 53.0326951,368.262598 32.9896635,302.438214 C12.9370349,236.613829 57.3320862,228.098565 94.9613546,234.970939 C132.576228,241.838685 150.361599,359.694113 147.748856,362.269518 C145.14091,364.851864 125.486551,377 125.486551,377" id="Fill-45" fill="#D0612E"></path>
            <path d="M153.401149,348.713009 C176.749073,344.414389 210.223721,348.499586 217.705243,357.683739 C240.671163,385.864869 195.551384,397.320123 166.557481,397.97895 C142.789111,398.514828 117.454283,388.743761 115.200696,377.26531 C112.939902,365.779898 130.038809,353.00003 153.401149,348.713009" id="Fill-46" fill="#EB904E"></path>
        </g>
    </g>
</svg>